<mxfile host="Electron" agent="Mozilla/5.0 (Windows NT 10.0; Win64; x64) AppleWebKit/537.36 (KHTML, like Gecko) draw.io/28.0.6 Chrome/138.0.7204.100 Electron/37.2.3 Safari/537.36" version="28.0.6">
  <diagram name="Page-1" id="2a216829-ef6e-dabb-86c1-c78162f3ba2b">
    <mxGraphModel dx="1426" dy="849" grid="1" gridSize="10" guides="1" tooltips="1" connect="1" arrows="1" fold="1" page="1" pageScale="1" pageWidth="850" pageHeight="1100" background="none" math="0" shadow="0">
      <root>
        <mxCell id="0" />
        <mxCell id="1" parent="0" />
        <mxCell id="Rylz1-FYV-qWUsAyGiuU-2" value="Клиент" style="swimlane;startSize=20;horizontal=0;html=1;whiteSpace=wrap;" parent="1" vertex="1">
          <mxGeometry x="210" y="120" width="1520" height="330" as="geometry" />
        </mxCell>
        <mxCell id="Rylz1-FYV-qWUsAyGiuU-12" value="" style="points=[[0.145,0.145,0],[0.5,0,0],[0.855,0.145,0],[1,0.5,0],[0.855,0.855,0],[0.5,1,0],[0.145,0.855,0],[0,0.5,0]];shape=mxgraph.bpmn.event;html=1;verticalLabelPosition=bottom;labelBackgroundColor=#ffffff;verticalAlign=top;align=center;perimeter=ellipsePerimeter;outlineConnect=0;aspect=fixed;outline=standard;symbol=general;" parent="Rylz1-FYV-qWUsAyGiuU-2" vertex="1">
          <mxGeometry x="50" y="80" width="50" height="50" as="geometry" />
        </mxCell>
        <mxCell id="Rylz1-FYV-qWUsAyGiuU-13" value="Возникло чувство голода" style="text;html=1;align=center;verticalAlign=middle;whiteSpace=wrap;rounded=0;" parent="Rylz1-FYV-qWUsAyGiuU-2" vertex="1">
          <mxGeometry x="45" y="140" width="60" height="30" as="geometry" />
        </mxCell>
        <mxCell id="Rylz1-FYV-qWUsAyGiuU-49" style="edgeStyle=orthogonalEdgeStyle;rounded=0;orthogonalLoop=1;jettySize=auto;html=1;" parent="Rylz1-FYV-qWUsAyGiuU-2" source="Rylz1-FYV-qWUsAyGiuU-14" target="Rylz1-FYV-qWUsAyGiuU-16" edge="1">
          <mxGeometry relative="1" as="geometry" />
        </mxCell>
        <mxCell id="Rylz1-FYV-qWUsAyGiuU-14" value="Выбрать пиццу" style="points=[[0.25,0,0],[0.5,0,0],[0.75,0,0],[1,0.25,0],[1,0.5,0],[1,0.75,0],[0.75,1,0],[0.5,1,0],[0.25,1,0],[0,0.75,0],[0,0.5,0],[0,0.25,0]];shape=mxgraph.bpmn.task;whiteSpace=wrap;rectStyle=rounded;size=10;html=1;container=1;expand=0;collapsible=0;taskMarker=abstract;" parent="Rylz1-FYV-qWUsAyGiuU-2" vertex="1">
          <mxGeometry x="155" y="65" width="120" height="80" as="geometry" />
        </mxCell>
        <mxCell id="Rylz1-FYV-qWUsAyGiuU-15" style="edgeStyle=orthogonalEdgeStyle;rounded=0;orthogonalLoop=1;jettySize=auto;html=1;entryX=0;entryY=0.5;entryDx=0;entryDy=0;entryPerimeter=0;" parent="Rylz1-FYV-qWUsAyGiuU-2" source="Rylz1-FYV-qWUsAyGiuU-12" target="Rylz1-FYV-qWUsAyGiuU-14" edge="1">
          <mxGeometry relative="1" as="geometry" />
        </mxCell>
        <mxCell id="Rylz1-FYV-qWUsAyGiuU-27" value="" style="edgeStyle=orthogonalEdgeStyle;rounded=0;orthogonalLoop=1;jettySize=auto;html=1;" parent="Rylz1-FYV-qWUsAyGiuU-2" source="Rylz1-FYV-qWUsAyGiuU-16" target="Rylz1-FYV-qWUsAyGiuU-17" edge="1">
          <mxGeometry relative="1" as="geometry" />
        </mxCell>
        <mxCell id="Rylz1-FYV-qWUsAyGiuU-16" value="Заказать пиццу" style="points=[[0.25,0,0],[0.5,0,0],[0.75,0,0],[1,0.25,0],[1,0.5,0],[1,0.75,0],[0.75,1,0],[0.5,1,0],[0.25,1,0],[0,0.75,0],[0,0.5,0],[0,0.25,0]];shape=mxgraph.bpmn.task;whiteSpace=wrap;rectStyle=rounded;size=10;html=1;container=1;expand=0;collapsible=0;taskMarker=abstract;" parent="Rylz1-FYV-qWUsAyGiuU-2" vertex="1">
          <mxGeometry x="320" y="65" width="120" height="80" as="geometry" />
        </mxCell>
        <mxCell id="Rylz1-FYV-qWUsAyGiuU-17" value="" style="points=[[0.25,0.25,0],[0.5,0,0],[0.75,0.25,0],[1,0.5,0],[0.75,0.75,0],[0.5,1,0],[0.25,0.75,0],[0,0.5,0]];shape=mxgraph.bpmn.gateway2;html=1;verticalLabelPosition=bottom;labelBackgroundColor=#ffffff;verticalAlign=top;align=center;perimeter=rhombusPerimeter;outlineConnect=0;outline=catching;symbol=multiple;" parent="Rylz1-FYV-qWUsAyGiuU-2" vertex="1">
          <mxGeometry x="480" y="80" width="50" height="50" as="geometry" />
        </mxCell>
        <mxCell id="Rylz1-FYV-qWUsAyGiuU-18" value="Обратиться в службу доставки" style="points=[[0.25,0,0],[0.5,0,0],[0.75,0,0],[1,0.25,0],[1,0.5,0],[1,0.75,0],[0.75,1,0],[0.5,1,0],[0.25,1,0],[0,0.75,0],[0,0.5,0],[0,0.25,0]];shape=mxgraph.bpmn.task;whiteSpace=wrap;rectStyle=rounded;size=10;html=1;container=1;expand=0;collapsible=0;taskMarker=abstract;" parent="Rylz1-FYV-qWUsAyGiuU-2" vertex="1">
          <mxGeometry x="690" y="155" width="120" height="80" as="geometry" />
        </mxCell>
        <mxCell id="Rylz1-FYV-qWUsAyGiuU-19" value="" style="points=[[0.145,0.145,0],[0.5,0,0],[0.855,0.145,0],[1,0.5,0],[0.855,0.855,0],[0.5,1,0],[0.145,0.855,0],[0,0.5,0]];shape=mxgraph.bpmn.event;html=1;verticalLabelPosition=bottom;labelBackgroundColor=#ffffff;verticalAlign=top;align=center;perimeter=ellipsePerimeter;outlineConnect=0;aspect=fixed;outline=catching;symbol=timer;" parent="Rylz1-FYV-qWUsAyGiuU-2" vertex="1">
          <mxGeometry x="590" y="170" width="50" height="50" as="geometry" />
        </mxCell>
        <mxCell id="Rylz1-FYV-qWUsAyGiuU-20" value="60 минут" style="text;html=1;align=center;verticalAlign=middle;whiteSpace=wrap;rounded=0;" parent="Rylz1-FYV-qWUsAyGiuU-2" vertex="1">
          <mxGeometry x="585" y="220" width="60" height="30" as="geometry" />
        </mxCell>
        <mxCell id="Rylz1-FYV-qWUsAyGiuU-21" value="" style="points=[[0.145,0.145,0],[0.5,0,0],[0.855,0.145,0],[1,0.5,0],[0.855,0.855,0],[0.5,1,0],[0.145,0.855,0],[0,0.5,0]];shape=mxgraph.bpmn.event;html=1;verticalLabelPosition=bottom;labelBackgroundColor=#ffffff;verticalAlign=top;align=center;perimeter=ellipsePerimeter;outlineConnect=0;aspect=fixed;outline=catching;symbol=message;" parent="Rylz1-FYV-qWUsAyGiuU-2" vertex="1">
          <mxGeometry x="890" y="80" width="50" height="50" as="geometry" />
        </mxCell>
        <mxCell id="Rylz1-FYV-qWUsAyGiuU-33" style="edgeStyle=orthogonalEdgeStyle;rounded=0;orthogonalLoop=1;jettySize=auto;html=1;" parent="Rylz1-FYV-qWUsAyGiuU-2" source="Rylz1-FYV-qWUsAyGiuU-22" target="Rylz1-FYV-qWUsAyGiuU-23" edge="1">
          <mxGeometry relative="1" as="geometry" />
        </mxCell>
        <mxCell id="Rylz1-FYV-qWUsAyGiuU-22" value="Заплатить за пиццу" style="points=[[0.25,0,0],[0.5,0,0],[0.75,0,0],[1,0.25,0],[1,0.5,0],[1,0.75,0],[0.75,1,0],[0.5,1,0],[0.25,1,0],[0,0.75,0],[0,0.5,0],[0,0.25,0]];shape=mxgraph.bpmn.task;whiteSpace=wrap;rectStyle=rounded;size=10;html=1;container=1;expand=0;collapsible=0;taskMarker=abstract;" parent="Rylz1-FYV-qWUsAyGiuU-2" vertex="1">
          <mxGeometry x="1080" y="65" width="120" height="80" as="geometry" />
        </mxCell>
        <mxCell id="Rylz1-FYV-qWUsAyGiuU-23" value="Съесть пиццу" style="points=[[0.25,0,0],[0.5,0,0],[0.75,0,0],[1,0.25,0],[1,0.5,0],[1,0.75,0],[0.75,1,0],[0.5,1,0],[0.25,1,0],[0,0.75,0],[0,0.5,0],[0,0.25,0]];shape=mxgraph.bpmn.task;whiteSpace=wrap;rectStyle=rounded;size=10;html=1;container=1;expand=0;collapsible=0;taskMarker=abstract;" parent="Rylz1-FYV-qWUsAyGiuU-2" vertex="1">
          <mxGeometry x="1260" y="65" width="120" height="80" as="geometry" />
        </mxCell>
        <mxCell id="Rylz1-FYV-qWUsAyGiuU-24" value="" style="points=[[0.145,0.145,0],[0.5,0,0],[0.855,0.145,0],[1,0.5,0],[0.855,0.855,0],[0.5,1,0],[0.145,0.855,0],[0,0.5,0]];shape=mxgraph.bpmn.event;html=1;verticalLabelPosition=bottom;labelBackgroundColor=#ffffff;verticalAlign=top;align=center;perimeter=ellipsePerimeter;outlineConnect=0;aspect=fixed;outline=end;symbol=terminate2;" parent="Rylz1-FYV-qWUsAyGiuU-2" vertex="1">
          <mxGeometry x="1440" y="80" width="50" height="50" as="geometry" />
        </mxCell>
        <mxCell id="Rylz1-FYV-qWUsAyGiuU-25" value="Пицца получена" style="text;html=1;align=center;verticalAlign=middle;whiteSpace=wrap;rounded=0;" parent="Rylz1-FYV-qWUsAyGiuU-2" vertex="1">
          <mxGeometry x="885" y="50" width="60" height="30" as="geometry" />
        </mxCell>
        <mxCell id="Rylz1-FYV-qWUsAyGiuU-26" value="Голод утолён" style="text;html=1;align=center;verticalAlign=middle;whiteSpace=wrap;rounded=0;" parent="Rylz1-FYV-qWUsAyGiuU-2" vertex="1">
          <mxGeometry x="1435" y="140" width="60" height="30" as="geometry" />
        </mxCell>
        <mxCell id="Rylz1-FYV-qWUsAyGiuU-28" style="edgeStyle=orthogonalEdgeStyle;rounded=0;orthogonalLoop=1;jettySize=auto;html=1;entryX=0;entryY=0.5;entryDx=0;entryDy=0;entryPerimeter=0;" parent="Rylz1-FYV-qWUsAyGiuU-2" source="Rylz1-FYV-qWUsAyGiuU-17" target="Rylz1-FYV-qWUsAyGiuU-21" edge="1">
          <mxGeometry relative="1" as="geometry" />
        </mxCell>
        <mxCell id="Rylz1-FYV-qWUsAyGiuU-29" style="edgeStyle=orthogonalEdgeStyle;rounded=0;orthogonalLoop=1;jettySize=auto;html=1;entryX=0;entryY=0.5;entryDx=0;entryDy=0;entryPerimeter=0;exitX=0.5;exitY=1;exitDx=0;exitDy=0;exitPerimeter=0;" parent="Rylz1-FYV-qWUsAyGiuU-2" source="Rylz1-FYV-qWUsAyGiuU-17" target="Rylz1-FYV-qWUsAyGiuU-19" edge="1">
          <mxGeometry relative="1" as="geometry" />
        </mxCell>
        <mxCell id="Rylz1-FYV-qWUsAyGiuU-30" style="edgeStyle=orthogonalEdgeStyle;rounded=0;orthogonalLoop=1;jettySize=auto;html=1;entryX=0;entryY=0.5;entryDx=0;entryDy=0;entryPerimeter=0;" parent="Rylz1-FYV-qWUsAyGiuU-2" source="Rylz1-FYV-qWUsAyGiuU-19" target="Rylz1-FYV-qWUsAyGiuU-18" edge="1">
          <mxGeometry relative="1" as="geometry" />
        </mxCell>
        <mxCell id="Rylz1-FYV-qWUsAyGiuU-31" style="edgeStyle=orthogonalEdgeStyle;rounded=0;orthogonalLoop=1;jettySize=auto;html=1;entryX=0;entryY=0.5;entryDx=0;entryDy=0;entryPerimeter=0;exitX=0.5;exitY=1;exitDx=0;exitDy=0;exitPerimeter=0;" parent="Rylz1-FYV-qWUsAyGiuU-2" source="Rylz1-FYV-qWUsAyGiuU-18" target="Rylz1-FYV-qWUsAyGiuU-17" edge="1">
          <mxGeometry relative="1" as="geometry">
            <Array as="points">
              <mxPoint x="750" y="280" />
              <mxPoint x="480" y="280" />
            </Array>
          </mxGeometry>
        </mxCell>
        <mxCell id="Rylz1-FYV-qWUsAyGiuU-32" style="edgeStyle=orthogonalEdgeStyle;rounded=0;orthogonalLoop=1;jettySize=auto;html=1;entryX=0;entryY=0.5;entryDx=0;entryDy=0;entryPerimeter=0;" parent="Rylz1-FYV-qWUsAyGiuU-2" source="Rylz1-FYV-qWUsAyGiuU-21" target="Rylz1-FYV-qWUsAyGiuU-22" edge="1">
          <mxGeometry relative="1" as="geometry" />
        </mxCell>
        <mxCell id="Rylz1-FYV-qWUsAyGiuU-34" style="edgeStyle=orthogonalEdgeStyle;rounded=0;orthogonalLoop=1;jettySize=auto;html=1;entryX=0;entryY=0.5;entryDx=0;entryDy=0;entryPerimeter=0;" parent="Rylz1-FYV-qWUsAyGiuU-2" source="Rylz1-FYV-qWUsAyGiuU-23" target="Rylz1-FYV-qWUsAyGiuU-24" edge="1">
          <mxGeometry relative="1" as="geometry" />
        </mxCell>
        <mxCell id="Rylz1-FYV-qWUsAyGiuU-8" value="Сервис доставки" style="swimlane;html=1;childLayout=stackLayout;resizeParent=1;resizeParentMax=0;horizontal=0;startSize=20;horizontalStack=0;whiteSpace=wrap;" parent="1" vertex="1">
          <mxGeometry x="210" y="560" width="1450" height="810" as="geometry" />
        </mxCell>
        <mxCell id="Rylz1-FYV-qWUsAyGiuU-9" value="Клерк" style="swimlane;html=1;startSize=20;horizontal=0;" parent="Rylz1-FYV-qWUsAyGiuU-8" vertex="1">
          <mxGeometry x="20" width="1430" height="290" as="geometry" />
        </mxCell>
        <mxCell id="Rylz1-FYV-qWUsAyGiuU-35" value="" style="points=[[0.145,0.145,0],[0.5,0,0],[0.855,0.145,0],[1,0.5,0],[0.855,0.855,0],[0.5,1,0],[0.145,0.855,0],[0,0.5,0]];shape=mxgraph.bpmn.event;html=1;verticalLabelPosition=bottom;labelBackgroundColor=#ffffff;verticalAlign=top;align=center;perimeter=ellipsePerimeter;outlineConnect=0;aspect=fixed;outline=standard;symbol=message;" parent="Rylz1-FYV-qWUsAyGiuU-9" vertex="1">
          <mxGeometry x="170" y="110" width="50" height="50" as="geometry" />
        </mxCell>
        <mxCell id="Rylz1-FYV-qWUsAyGiuU-51" value="" style="points=[[0.25,0.25,0],[0.5,0,0],[0.75,0.25,0],[1,0.5,0],[0.75,0.75,0],[0.5,1,0],[0.25,0.75,0],[0,0.5,0]];shape=mxgraph.bpmn.gateway2;html=1;verticalLabelPosition=bottom;labelBackgroundColor=#ffffff;verticalAlign=top;align=center;perimeter=rhombusPerimeter;outlineConnect=0;outline=none;symbol=none;gwType=parallel;" parent="Rylz1-FYV-qWUsAyGiuU-9" vertex="1">
          <mxGeometry x="270" y="110" width="50" height="50" as="geometry" />
        </mxCell>
        <mxCell id="Rylz1-FYV-qWUsAyGiuU-52" style="edgeStyle=orthogonalEdgeStyle;rounded=0;orthogonalLoop=1;jettySize=auto;html=1;entryX=0;entryY=0.5;entryDx=0;entryDy=0;entryPerimeter=0;" parent="Rylz1-FYV-qWUsAyGiuU-9" source="Rylz1-FYV-qWUsAyGiuU-35" target="Rylz1-FYV-qWUsAyGiuU-51" edge="1">
          <mxGeometry relative="1" as="geometry" />
        </mxCell>
        <mxCell id="Rylz1-FYV-qWUsAyGiuU-53" value="" style="points=[[0.145,0.145,0],[0.5,0,0],[0.855,0.145,0],[1,0.5,0],[0.855,0.855,0],[0.5,1,0],[0.145,0.855,0],[0,0.5,0]];shape=mxgraph.bpmn.event;html=1;verticalLabelPosition=bottom;labelBackgroundColor=#ffffff;verticalAlign=top;align=center;perimeter=ellipsePerimeter;outlineConnect=0;aspect=fixed;outline=catching;symbol=message;" parent="Rylz1-FYV-qWUsAyGiuU-9" vertex="1">
          <mxGeometry x="370" y="110" width="50" height="50" as="geometry" />
        </mxCell>
        <mxCell id="Rylz1-FYV-qWUsAyGiuU-54" style="edgeStyle=orthogonalEdgeStyle;rounded=0;orthogonalLoop=1;jettySize=auto;html=1;entryX=0;entryY=0.5;entryDx=0;entryDy=0;entryPerimeter=0;" parent="Rylz1-FYV-qWUsAyGiuU-9" source="Rylz1-FYV-qWUsAyGiuU-51" target="Rylz1-FYV-qWUsAyGiuU-53" edge="1">
          <mxGeometry relative="1" as="geometry" />
        </mxCell>
        <mxCell id="Rylz1-FYV-qWUsAyGiuU-55" value="Звонок клиента из-за задержки доставки" style="text;html=1;align=center;verticalAlign=middle;whiteSpace=wrap;rounded=0;" parent="Rylz1-FYV-qWUsAyGiuU-9" vertex="1">
          <mxGeometry x="347.5" y="170" width="95" height="30" as="geometry" />
        </mxCell>
        <mxCell id="Rylz1-FYV-qWUsAyGiuU-62" style="edgeStyle=orthogonalEdgeStyle;rounded=0;orthogonalLoop=1;jettySize=auto;html=1;" parent="Rylz1-FYV-qWUsAyGiuU-9" source="Rylz1-FYV-qWUsAyGiuU-56" target="Rylz1-FYV-qWUsAyGiuU-60" edge="1">
          <mxGeometry relative="1" as="geometry" />
        </mxCell>
        <mxCell id="Rylz1-FYV-qWUsAyGiuU-56" value="Успокоить клиента" style="points=[[0.25,0,0],[0.5,0,0],[0.75,0,0],[1,0.25,0],[1,0.5,0],[1,0.75,0],[0.75,1,0],[0.5,1,0],[0.25,1,0],[0,0.75,0],[0,0.5,0],[0,0.25,0]];shape=mxgraph.bpmn.task;whiteSpace=wrap;rectStyle=rounded;size=10;html=1;container=1;expand=0;collapsible=0;taskMarker=abstract;" parent="Rylz1-FYV-qWUsAyGiuU-9" vertex="1">
          <mxGeometry x="500" y="95" width="120" height="80" as="geometry" />
        </mxCell>
        <mxCell id="Rylz1-FYV-qWUsAyGiuU-65" value="" style="dashed=1;dashPattern=8 4;endArrow=blockThin;endFill=0;startArrow=oval;startFill=0;endSize=6;startSize=4;html=1;rounded=0;" parent="Rylz1-FYV-qWUsAyGiuU-56" edge="1">
          <mxGeometry width="160" relative="1" as="geometry">
            <mxPoint x="59.549999999999955" as="sourcePoint" />
            <mxPoint x="60" y="-205" as="targetPoint" />
            <Array as="points" />
          </mxGeometry>
        </mxCell>
        <mxCell id="Rylz1-FYV-qWUsAyGiuU-57" style="edgeStyle=orthogonalEdgeStyle;rounded=0;orthogonalLoop=1;jettySize=auto;html=1;entryX=0;entryY=0.5;entryDx=0;entryDy=0;entryPerimeter=0;" parent="Rylz1-FYV-qWUsAyGiuU-9" source="Rylz1-FYV-qWUsAyGiuU-53" target="Rylz1-FYV-qWUsAyGiuU-56" edge="1">
          <mxGeometry relative="1" as="geometry" />
        </mxCell>
        <mxCell id="Rylz1-FYV-qWUsAyGiuU-58" value="" style="points=[[0.145,0.145,0],[0.5,0,0],[0.855,0.145,0],[1,0.5,0],[0.855,0.855,0],[0.5,1,0],[0.145,0.855,0],[0,0.5,0]];shape=mxgraph.bpmn.event;html=1;verticalLabelPosition=bottom;labelBackgroundColor=#ffffff;verticalAlign=top;align=center;perimeter=ellipsePerimeter;outlineConnect=0;aspect=fixed;outline=end;symbol=terminate;" parent="Rylz1-FYV-qWUsAyGiuU-9" vertex="1">
          <mxGeometry x="810" y="110" width="50" height="50" as="geometry" />
        </mxCell>
        <mxCell id="Rylz1-FYV-qWUsAyGiuU-60" value="" style="points=[[0.145,0.145,0],[0.5,0,0],[0.855,0.145,0],[1,0.5,0],[0.855,0.855,0],[0.5,1,0],[0.145,0.855,0],[0,0.5,0]];shape=mxgraph.bpmn.event;html=1;verticalLabelPosition=bottom;labelBackgroundColor=#ffffff;verticalAlign=top;align=center;perimeter=ellipsePerimeter;outlineConnect=0;aspect=fixed;outline=catching;symbol=message;" parent="Rylz1-FYV-qWUsAyGiuU-9" vertex="1">
          <mxGeometry x="680" y="110" width="50" height="50" as="geometry" />
        </mxCell>
        <mxCell id="Rylz1-FYV-qWUsAyGiuU-61" value="Клиент отказался от заказа" style="text;html=1;align=center;verticalAlign=middle;whiteSpace=wrap;rounded=0;" parent="Rylz1-FYV-qWUsAyGiuU-9" vertex="1">
          <mxGeometry x="657.5" y="170" width="102.5" height="30" as="geometry" />
        </mxCell>
        <mxCell id="Rylz1-FYV-qWUsAyGiuU-63" style="edgeStyle=orthogonalEdgeStyle;rounded=0;orthogonalLoop=1;jettySize=auto;html=1;entryX=0;entryY=0.5;entryDx=0;entryDy=0;entryPerimeter=0;" parent="Rylz1-FYV-qWUsAyGiuU-9" source="Rylz1-FYV-qWUsAyGiuU-60" target="Rylz1-FYV-qWUsAyGiuU-58" edge="1">
          <mxGeometry relative="1" as="geometry" />
        </mxCell>
        <mxCell id="Rylz1-FYV-qWUsAyGiuU-10" value="Шеф-повар" style="swimlane;html=1;startSize=20;horizontal=0;" parent="Rylz1-FYV-qWUsAyGiuU-8" vertex="1">
          <mxGeometry x="20" y="290" width="1430" height="250" as="geometry" />
        </mxCell>
        <mxCell id="Rylz1-FYV-qWUsAyGiuU-36" value="Приготовить пиццу" style="points=[[0.25,0,0],[0.5,0,0],[0.75,0,0],[1,0.25,0],[1,0.5,0],[1,0.75,0],[0.75,1,0],[0.5,1,0],[0.25,1,0],[0,0.75,0],[0,0.5,0],[0,0.25,0]];shape=mxgraph.bpmn.task;whiteSpace=wrap;rectStyle=rounded;size=10;html=1;container=1;expand=0;collapsible=0;taskMarker=abstract;" parent="Rylz1-FYV-qWUsAyGiuU-10" vertex="1">
          <mxGeometry x="380" y="70" width="120" height="80" as="geometry" />
        </mxCell>
        <mxCell id="Rylz1-FYV-qWUsAyGiuU-11" value="Доставщик" style="swimlane;html=1;startSize=20;horizontal=0;" parent="Rylz1-FYV-qWUsAyGiuU-8" vertex="1">
          <mxGeometry x="20" y="540" width="1430" height="270" as="geometry" />
        </mxCell>
        <mxCell id="Rylz1-FYV-qWUsAyGiuU-37" value="Доставить пиццу" style="points=[[0.25,0,0],[0.5,0,0],[0.75,0,0],[1,0.25,0],[1,0.5,0],[1,0.75,0],[0.75,1,0],[0.5,1,0],[0.25,1,0],[0,0.75,0],[0,0.5,0],[0,0.25,0]];shape=mxgraph.bpmn.task;whiteSpace=wrap;rectStyle=rounded;size=10;html=1;container=1;expand=0;collapsible=0;taskMarker=abstract;" parent="Rylz1-FYV-qWUsAyGiuU-11" vertex="1">
          <mxGeometry x="835" y="40" width="120" height="80" as="geometry" />
        </mxCell>
        <mxCell id="Rylz1-FYV-qWUsAyGiuU-44" style="edgeStyle=orthogonalEdgeStyle;rounded=0;orthogonalLoop=1;jettySize=auto;html=1;" parent="Rylz1-FYV-qWUsAyGiuU-11" source="Rylz1-FYV-qWUsAyGiuU-38" target="Rylz1-FYV-qWUsAyGiuU-39" edge="1">
          <mxGeometry relative="1" as="geometry" />
        </mxCell>
        <mxCell id="Rylz1-FYV-qWUsAyGiuU-38" value="Получить деньги" style="points=[[0.25,0,0],[0.5,0,0],[0.75,0,0],[1,0.25,0],[1,0.5,0],[1,0.75,0],[0.75,1,0],[0.5,1,0],[0.25,1,0],[0,0.75,0],[0,0.5,0],[0,0.25,0]];shape=mxgraph.bpmn.task;whiteSpace=wrap;rectStyle=rounded;size=10;html=1;container=1;expand=0;collapsible=0;taskMarker=abstract;" parent="Rylz1-FYV-qWUsAyGiuU-11" vertex="1">
          <mxGeometry x="1060" y="40" width="120" height="80" as="geometry" />
        </mxCell>
        <mxCell id="Rylz1-FYV-qWUsAyGiuU-39" value="" style="points=[[0.145,0.145,0],[0.5,0,0],[0.855,0.145,0],[1,0.5,0],[0.855,0.855,0],[0.5,1,0],[0.145,0.855,0],[0,0.5,0]];shape=mxgraph.bpmn.event;html=1;verticalLabelPosition=bottom;labelBackgroundColor=#ffffff;verticalAlign=top;align=center;perimeter=ellipsePerimeter;outlineConnect=0;aspect=fixed;outline=end;symbol=terminate2;" parent="Rylz1-FYV-qWUsAyGiuU-11" vertex="1">
          <mxGeometry x="1300" y="55" width="50" height="50" as="geometry" />
        </mxCell>
        <mxCell id="Rylz1-FYV-qWUsAyGiuU-40" value="Заказ доставлен" style="text;html=1;align=center;verticalAlign=middle;whiteSpace=wrap;rounded=0;" parent="Rylz1-FYV-qWUsAyGiuU-11" vertex="1">
          <mxGeometry x="1295" y="120" width="60" height="30" as="geometry" />
        </mxCell>
        <mxCell id="Rylz1-FYV-qWUsAyGiuU-43" style="edgeStyle=orthogonalEdgeStyle;rounded=0;orthogonalLoop=1;jettySize=auto;html=1;entryX=0;entryY=0.5;entryDx=0;entryDy=0;entryPerimeter=0;" parent="Rylz1-FYV-qWUsAyGiuU-11" source="Rylz1-FYV-qWUsAyGiuU-37" target="Rylz1-FYV-qWUsAyGiuU-38" edge="1">
          <mxGeometry relative="1" as="geometry" />
        </mxCell>
        <mxCell id="Rylz1-FYV-qWUsAyGiuU-41" style="edgeStyle=orthogonalEdgeStyle;rounded=0;orthogonalLoop=1;jettySize=auto;html=1;entryX=0;entryY=0.5;entryDx=0;entryDy=0;entryPerimeter=0;exitX=0.5;exitY=1;exitDx=0;exitDy=0;exitPerimeter=0;" parent="Rylz1-FYV-qWUsAyGiuU-8" source="Rylz1-FYV-qWUsAyGiuU-51" target="Rylz1-FYV-qWUsAyGiuU-36" edge="1">
          <mxGeometry relative="1" as="geometry" />
        </mxCell>
        <mxCell id="Rylz1-FYV-qWUsAyGiuU-42" style="edgeStyle=orthogonalEdgeStyle;rounded=0;orthogonalLoop=1;jettySize=auto;html=1;entryX=0;entryY=0.5;entryDx=0;entryDy=0;entryPerimeter=0;" parent="Rylz1-FYV-qWUsAyGiuU-8" source="Rylz1-FYV-qWUsAyGiuU-36" target="Rylz1-FYV-qWUsAyGiuU-37" edge="1">
          <mxGeometry relative="1" as="geometry" />
        </mxCell>
        <mxCell id="Rylz1-FYV-qWUsAyGiuU-45" value="" style="dashed=1;dashPattern=8 4;endArrow=blockThin;endFill=0;startArrow=oval;startFill=0;endSize=6;startSize=4;html=1;rounded=0;exitX=0.25;exitY=0;exitDx=0;exitDy=0;exitPerimeter=0;entryX=0.25;entryY=1;entryDx=0;entryDy=0;entryPerimeter=0;" parent="1" source="Rylz1-FYV-qWUsAyGiuU-38" target="Rylz1-FYV-qWUsAyGiuU-22" edge="1">
          <mxGeometry width="160" relative="1" as="geometry">
            <mxPoint x="1330" y="550" as="sourcePoint" />
            <mxPoint x="1330" y="285" as="targetPoint" />
            <Array as="points" />
          </mxGeometry>
        </mxCell>
        <mxCell id="Rylz1-FYV-qWUsAyGiuU-46" value="" style="dashed=1;dashPattern=8 4;endArrow=blockThin;endFill=0;startArrow=oval;startFill=0;endSize=6;startSize=4;html=1;rounded=0;exitX=0.75;exitY=1;exitDx=0;exitDy=0;exitPerimeter=0;entryX=0.75;entryY=0;entryDx=0;entryDy=0;entryPerimeter=0;" parent="1" source="Rylz1-FYV-qWUsAyGiuU-22" target="Rylz1-FYV-qWUsAyGiuU-38" edge="1">
          <mxGeometry width="160" relative="1" as="geometry">
            <mxPoint x="1554.33" y="1142.5" as="sourcePoint" />
            <mxPoint x="1554.33" y="267.5" as="targetPoint" />
            <Array as="points" />
          </mxGeometry>
        </mxCell>
        <mxCell id="Rylz1-FYV-qWUsAyGiuU-47" value="" style="dashed=1;dashPattern=8 4;endArrow=blockThin;endFill=0;startArrow=oval;startFill=0;endSize=6;startSize=4;html=1;rounded=0;exitX=0.5;exitY=0;exitDx=0;exitDy=0;exitPerimeter=0;entryX=0.5;entryY=1;entryDx=0;entryDy=0;entryPerimeter=0;" parent="1" source="Rylz1-FYV-qWUsAyGiuU-37" target="Rylz1-FYV-qWUsAyGiuU-21" edge="1">
          <mxGeometry width="160" relative="1" as="geometry">
            <mxPoint x="1120" y="1135" as="sourcePoint" />
            <mxPoint x="1120" y="260" as="targetPoint" />
            <Array as="points" />
          </mxGeometry>
        </mxCell>
        <mxCell id="Rylz1-FYV-qWUsAyGiuU-48" value="" style="dashed=1;dashPattern=8 4;endArrow=blockThin;endFill=0;startArrow=oval;startFill=0;endSize=6;startSize=4;html=1;rounded=0;exitX=0.5;exitY=1;exitDx=0;exitDy=0;exitPerimeter=0;entryX=0.5;entryY=0;entryDx=0;entryDy=0;entryPerimeter=0;" parent="1" source="Rylz1-FYV-qWUsAyGiuU-14" target="Rylz1-FYV-qWUsAyGiuU-35" edge="1">
          <mxGeometry width="160" relative="1" as="geometry">
            <mxPoint x="424" y="290" as="sourcePoint" />
            <mxPoint x="424" y="1165" as="targetPoint" />
            <Array as="points" />
          </mxGeometry>
        </mxCell>
        <mxCell id="Rylz1-FYV-qWUsAyGiuU-64" value="" style="dashed=1;dashPattern=8 4;endArrow=blockThin;endFill=0;startArrow=oval;startFill=0;endSize=6;startSize=4;html=1;rounded=0;entryX=0.5;entryY=0;entryDx=0;entryDy=0;entryPerimeter=0;" parent="1" target="Rylz1-FYV-qWUsAyGiuU-53" edge="1">
          <mxGeometry width="160" relative="1" as="geometry">
            <mxPoint x="625" y="450" as="sourcePoint" />
            <mxPoint x="630" y="855" as="targetPoint" />
            <Array as="points" />
          </mxGeometry>
        </mxCell>
        <mxCell id="Rylz1-FYV-qWUsAyGiuU-67" value="" style="dashed=1;dashPattern=8 4;endArrow=blockThin;endFill=0;startArrow=oval;startFill=0;endSize=6;startSize=4;html=1;rounded=0;entryX=0.5;entryY=0;entryDx=0;entryDy=0;entryPerimeter=0;" parent="1" target="Rylz1-FYV-qWUsAyGiuU-60" edge="1">
          <mxGeometry width="160" relative="1" as="geometry">
            <mxPoint x="935" y="450" as="sourcePoint" />
            <mxPoint x="930" y="670" as="targetPoint" />
            <Array as="points" />
          </mxGeometry>
        </mxCell>
      </root>
    </mxGraphModel>
  </diagram>
</mxfile>
